<svg width="74" height="20" viewBox="0 0 74 20" fill="none" xmlns="http://www.w3.org/2000/svg">
<path d="M23.7083 3.83482L25.4811 10.2276H21.8113L23.7083 3.83482ZM20.4927 14.6992L18.864 19.9978H28.3064L26.8008 14.6992H20.4927ZM45.1281 0H27.0065V5.69009H32.7373V19.9978H41.9334C40.5182 18.9142 39.3764 17.5143 38.5995 15.9101C37.8226 14.3059 37.4322 12.5421 37.4596 10.7599C37.4596 5.93863 40.3607 1.23722 45.1281 0ZM48.2789 14.8642C48.7973 14.8571 49.3092 14.7471 49.7848 14.5405C50.2604 14.3339 50.6901 14.0349 51.0492 13.6608C51.4082 13.2867 51.6893 12.845 51.8762 12.3614C52.0631 11.8778 52.1521 11.3618 52.1379 10.8435C52.1911 9.78253 51.8254 8.74312 51.1197 7.94913C50.4139 7.15514 49.4246 6.6701 48.3647 6.59848C47.2908 6.66069 46.2834 7.1387 45.556 7.93116C44.8286 8.72363 44.4385 9.76824 44.4683 10.8435C44.4443 11.3602 44.5249 11.8765 44.7052 12.3613C44.8855 12.8461 45.1619 13.2896 45.5177 13.665C45.8735 14.0405 46.3015 14.3402 46.776 14.5462C47.2504 14.7523 47.7616 14.8604 48.2789 14.8642ZM67.2869 12.5547L63.6215 0H54.1999V19.9978H60.0759V7.46288H60.1166L63.7655 20H73.2695V0H67.3309V12.5547H67.2869ZM11.4011 19.9978L13.0914 14.3891H6.80304V12.6999H13.6215L15.2502 7.31882H6.80304V5.69009H15.711L17.42 0H0V19.9978H11.4011Z" fill="#007BC1"/>
</svg>
